#!OML:ASF E:\Style4\Style4.ASF
:FULLY-SPECIFIED
:DEGREES
1672
root 0.940005 17.9253 0.0581884 5.68035 12.9136 2.30542
lowerback 4.58036 4.83801 0.968131
upperback 1.66133 6.51408 2.2169
thorax -0.997647 3.2529 1.37951
lowerneck 0.315996 -6.67363 -6.61514
upperneck 30.1819 -8.59271 0.6123
head 9.85511 -4.48391 0.666293
rclavicle 6.52014e-014 1.27222e-014
rhumerus -0.608995 47.7368 -84.7527
rradius 110.55
rwrist 2.18064
rhand -42.5915 33.4501
rfingers 7.12502
rthumb -15.4649 4.04875
lclavicle 6.52014e-014 1.27222e-014
lhumerus -0.396803 -48.1713 79.5757
lradius 118.082
lwrist 29.6775
lhand -28.9874 22.6433
lfingers 7.12502
lthumb -2.33952 52.6102
rfemur -10.4513 -5.94042 14.3165
rtibia 27.5384
rfoot -19.6939 -25.4947
rtoes -11.2208
lfemur -14.6278 -4.0379 -23.5275
ltibia 26.5991
lfoot -16.6591 5.59261
ltoes -14.8743
1673
root 0.953287 17.9431 0.0788578 5.74097 12.8576 2.07387
lowerback 4.31331 4.77835 1.23896
upperback 1.36449 6.44703 2.17536
thorax -1.11847 3.21906 1.20145
lowerneck -0.0199195 -6.66078 -6.40131
upperneck 30.3315 -8.52076 0.362932
head 9.94603 -4.4533 0.535027
rclavicle 1.43125e-014 -2.22639e-014
rhumerus 0.619026 47.5697 -83.6804
rradius 110.446
rwrist 2.76541
rhand -43.0972 33.4336
rfingers 7.12502
rthumb -15.952 4.07048
lclavicle 1.43125e-014 -2.22639e-014
lhumerus 0.960627 -48.0045 78.9454
lradius 117.915
lwrist 29.2087
lhand -28.7578 22.6307
lfingers 7.12502
lthumb -2.11782 52.5999
rfemur -10.2296 -5.90037 14.5416
rtibia 27.0643
rfoot -19.5058 -25.3862
rtoes -11.0197
lfemur -14.3635 -4.11626 -23.3101
ltibia 26.0577
lfoot -16.5071 5.81197
ltoes -15.3954
1674
root 0.961942 17.962 0.0988986 5.79429 12.7624 1.89096
lowerback 4.43003 4.72646 1.41133
upperback 0.838242 6.40137 2.07727
thorax -1.69378 3.19196 0.970798
lowerneck -0.357878 -6.63484 -6.25077
upperneck 30.8072 -8.46524 0.259635
head 10.172 -4.42167 0.45796
rclavicle 2.76311e-014 -3.49861e-014
rhumerus 1.38587 47.2179 -83.0336
rradius 110.302
rwrist 3.12413
rhand -43.1766 33.7217
rfingers 7.12502
rthumb -16.0284 4.36475
lclavicle 2.76311e-014 -3.49861e-014
lhumerus 1.7636 -47.9008 78.633
lradius 117.712
lwrist 28.6231
lhand -28.3385 22.384
lfingers 7.12502
lthumb -1.71284 52.3569
rfemur -10.0061 -5.77195 14.7406
rtibia 26.6028
rfoot -19.3009 -25.279
rtoes -10.6872
lfemur -14.0957 -4.1196 -23.1263
ltibia 25.5303
lfoot -16.3955 5.97269
ltoes -15.8264
1675
root 0.968473 17.9817 0.115761 5.87375 12.6707 1.84326
lowerback 4.5758 4.68418 1.40053
upperback 0.330739 6.36062 1.96633
thorax -2.28556 3.16666 0.825858
lowerneck -0.717471 -6.63977 -6.13319
upperneck 31.2714 -8.45498 0.174701
head 10.405 -4.41218 0.387196
rclavicle 9.34288e-015 -1.59028e-015
rhumerus 2.16942 46.8482 -82.3612
rradius 110.194
rwrist 2.86234
rhand -42.9153 34.1941
rfingers 7.12502
rthumb -15.7768 4.81709
lclavicle 9.34288e-015 -1.59028e-015
lhumerus 2.69007 -47.7904 78.2166
lradius 117.509
lwrist 28.1895
lhand -28.1064 22.178
lfingers 7.12502
lthumb -1.48866 52.1525
rfemur -9.81627 -5.57405 14.7872
rtibia 26.1486
rfoot -19.0867 -25.2433
rtoes -10.087
lfemur -13.8366 -4.12746 -23.084
ltibia 25.0009
lfoot -16.2382 6.07136
ltoes -15.8996
1676
root 0.976742 17.9999 0.132389 5.93792 12.5814 1.75828
lowerback 4.50292 4.66137 1.56464
upperback -0.0224562 6.34284 1.81543
thorax -2.57376 3.1522 0.571936
lowerneck -1.07474 -6.68629 -6.02698
upperneck 31.5402 -8.51307 0.127579
head 10.5695 -4.43201 0.327738
rclavicle 1.53064e-014 1.11319e-014
rhumerus 3.19654 46.3887 -81.5661
rradius 110.016
rwrist 2.44266
rhand -42.7793 34.4522
rfingers 7.12502
rthumb -15.6458 5.06483
lclavicle 1.53064e-014 1.11319e-014
lhumerus 4.11304 -47.6724 77.3937
lradius 117.301
lwrist 28.029
lhand -28.0064 22.321
lfingers 7.12502
lthumb -1.39212 52.2962
rfemur -9.6484 -5.45116 14.8385
rtibia 25.7067
rfoot -18.7651 -25.2549
rtoes -10.0238
lfemur -13.552 -4.18389 -23.0099
ltibia 24.4401
lfoot -16.0994 6.23333
ltoes -16.0892
1677
root 0.983208 18.0181 0.148981 6.01894 12.4876 1.64201
lowerback 4.19478 4.6357 1.68898
upperback -0.238802 6.31038 1.73269
thorax -2.60169 3.13354 0.438279
lowerneck -1.3995 -6.7077 -5.955
upperneck 31.6093 -8.53671 0.0943318
head 10.653 -4.4394 0.286707
rclavicle -6.36111e-014 1.11319e-014
rhumerus 4.50931 45.9662 -80.4869
rradius 109.814
rwrist 1.84298
rhand -42.8016 34.6217
rfingers 7.12502
rthumb -15.6673 5.23601
lclavicle -6.36111e-014 1.11319e-014
lhumerus 5.77368 -47.4227 76.4464
lradius 117.07
lwrist 27.9896
lhand -27.747 22.5113
lfingers 7.12502
lthumb -1.14157 52.4879
rfemur -9.4977 -5.36775 14.9386
rtibia 25.2504
rfoot -17.9882 -25.4402
rtoes -11.9757
lfemur -13.2899 -4.27376 -22.8894
ltibia 23.8732
lfoot -15.9382 6.4751
ltoes -16.3959
